<?xml version="1.0" standalone="no"?>
<!DOCTYPE svg PUBLIC "-//W3C//DTD SVG 20010904//EN"
 "http://www.w3.org/TR/2001/REC-SVG-20010904/DTD/svg10.dtd">
<svg version="1.0" xmlns="http://www.w3.org/2000/svg"
 width="188.000000pt" height="188.000000pt" viewBox="0 0 188.000000 188.000000"
 preserveAspectRatio="xMidYMid meet">
<metadata>
Created by potrace 1.11, written by Peter Selinger 2001-2013
</metadata>
<g transform="translate(0.000000,188.000000) scale(0.100000,-0.100000)"
fill="#000000" stroke="none">
<path d="M780 1864 c-45 -13 -133 -55 -127 -60 1 -1 47 -4 102 -5 156 -3 241
-34 324 -120 106 -109 144 -281 96 -436 -12 -40 -36 -75 -103 -150 -97 -108
-147 -171 -141 -178 2 -2 36 3 74 11 81 18 254 20 305 5 94 -29 133 -4 133 86
0 32 6 70 14 86 10 21 11 32 2 48 -6 12 -9 29 -6 40 3 10 -1 26 -9 36 -21 28
-17 40 21 63 19 12 35 28 35 36 0 8 -27 35 -59 60 -51 39 -64 56 -92 122 -52
121 -87 178 -144 235 -58 57 -127 100 -199 121 -57 17 -168 18 -226 0z"/>
<path d="M836 1752 c196 -65 288 -177 301 -364 3 -43 10 -78 14 -78 13 0 4
189 -11 238 -35 111 -175 203 -345 226 -27 3 -14 -3 41 -22z"/>
<path d="M531 1726 c-102 -76 -159 -215 -148 -362 7 -89 30 -144 122 -285 94
-144 110 -200 92 -317 -7 -48 -5 -48 52 3 158 140 273 279 322 391 40 93 31
204 -23 261 -29 31 -38 29 -38 -6 0 -158 -235 -250 -350 -138 -52 51 -64 83
-67 178 -2 92 15 166 56 247 12 24 21 46 18 48 -2 2 -18 -7 -36 -20z"/>
<path d="M794 1633 c-16 -8 -36 -21 -45 -29 -15 -14 -20 -12 -43 9 -64 59
-179 0 -161 -83 8 -35 59 -91 137 -149 l57 -43 28 20 c70 51 153 158 153 199
0 66 -67 107 -126 76z"/>
<path d="M1141 1284 c0 -11 3 -14 6 -6 3 7 2 16 -1 19 -3 4 -6 -2 -5 -13z"/>
<path d="M1041 878 c-128 -17 -238 -72 -311 -156 -22 -25 -39 -47 -37 -48 2
-2 38 14 80 36 42 22 104 49 138 60 68 23 199 50 199 41 0 -3 -51 -19 -112
-35 -114 -30 -275 -102 -267 -121 6 -14 23 -16 149 -17 98 0 124 3 176 23 64
25 313 160 314 170 0 8 -135 40 -195 46 -27 2 -54 5 -60 7 -5 1 -39 -2 -74 -6z"/>
<path d="M782 495 c3 -13 2 -22 -2 -20 -16 10 -18 -24 -3 -37 13 -11 17 -11
21 0 3 10 7 10 18 1 22 -18 42 4 24 26 -10 12 -16 13 -29 3 -14 -11 -14 -11
-3 3 10 14 10 20 -3 33 -23 22 -28 20 -23 -9z"/>
<path d="M330 471 c0 -15 8 -18 40 -18 26 0 40 4 40 13 0 20 -19 27 -35 14
-11 -9 -15 -9 -15 -1 0 6 -7 11 -15 11 -8 0 -15 -8 -15 -19z"/>
<path d="M693 482 c-9 -6 -9 -19 -2 -50 5 -24 12 -62 15 -84 6 -53 19 -68 56
-68 54 0 69 16 66 68 -3 48 -12 64 -33 56 -11 -5 -12 -33 -3 -75 2 -8 -7 -15
-19 -17 -25 -4 -30 8 -38 93 -7 62 -21 90 -42 77z"/>
<path d="M940 471 c0 -15 8 -18 41 -18 31 0 39 3 35 14 -4 8 -6 17 -6 19 0 2
-7 4 -15 4 -8 0 -15 -5 -15 -12 0 -9 -3 -9 -12 0 -17 17 -28 15 -28 -7z"/>
<path d="M1462 474 c2 -11 11 -20 22 -22 13 -3 17 1 14 14 -2 11 -11 20 -22
22 -13 3 -17 -1 -14 -14z"/>
<path d="M600 455 c0 -8 2 -15 4 -15 2 0 11 -3 20 -6 12 -4 16 0 16 15 0 14
-6 21 -20 21 -11 0 -20 -7 -20 -15z"/>
<path d="M964 422 c-3 -9 -10 -24 -15 -32 -28 -45 -33 -62 -22 -78 10 -17 38
-21 169 -25 45 -2 68 -7 83 -21 12 -11 21 -14 21 -8 0 8 19 12 50 12 59 0 90
24 90 70 0 23 -7 35 -32 50 -18 11 -43 20 -54 20 -31 0 -72 -36 -79 -71 -8
-36 -15 -32 -24 13 -9 46 -36 44 -36 -2 -1 -29 -5 -36 -24 -38 -30 -5 -43 9
-61 65 -17 51 -56 78 -66 45z m39 -89 c-7 -18 -43 -16 -43 2 0 8 6 24 12 35
12 19 13 19 24 -2 7 -12 10 -28 7 -35z m273 39 c18 -12 25 -44 13 -58 -6 -8
-29 -14 -50 -14 -32 0 -39 3 -39 20 0 22 33 60 53 60 6 0 17 -4 23 -8z"/>
<path d="M350 415 c0 -9 -9 -29 -21 -44 -12 -16 -19 -37 -17 -47 5 -27 46 -45
73 -32 16 7 29 7 43 -1 26 -14 67 -14 92 -1 13 7 21 7 25 0 8 -13 61 -13 86 0
15 8 19 21 19 59 0 55 -6 64 -30 51 -15 -8 -16 -16 -10 -44 9 -40 5 -46 -26
-46 -27 0 -44 26 -44 69 0 25 -4 31 -21 31 -18 0 -20 -5 -17 -47 3 -44 1 -48
-20 -51 -31 -5 -49 12 -56 53 -4 19 -14 41 -22 50 -20 20 -54 19 -54 0z m42
-52 c7 -27 -2 -43 -23 -43 -21 0 -24 12 -9 41 13 24 26 24 32 2z"/>
<path d="M1468 419 c-18 -10 -24 -45 -10 -65 4 -6 21 -18 37 -27 l30 -16 -47
-1 c-43 0 -49 3 -63 29 -8 17 -12 37 -9 45 4 11 0 16 -14 16 -26 0 -31 -23
-16 -86 12 -54 9 -67 -16 -76 -12 -5 -11 -7 4 -13 23 -10 50 6 54 32 2 15 11
20 40 21 60 2 91 12 102 32 36 67 -31 145 -92 109z m54 -34 c13 -29 8 -38 -16
-29 -17 7 -23 54 -6 54 6 0 16 -11 22 -25z"/>
<path d="M500 240 c0 -13 9 -17 40 -17 32 0 40 3 38 15 -5 24 -78 25 -78 2z"/>
<path d="M548 180 c-29 -9 -99 -19 -137 -19 -22 -1 -21 -4 20 -48 25 -27 54
-61 66 -78 l22 -30 -3 27 c-5 43 6 51 50 39 172 -50 429 -63 574 -31 89 19
178 50 220 76 16 10 18 13 5 8 -181 -66 -255 -78 -430 -71 -127 6 -202 18
-315 51 -66 19 -89 33 -75 44 12 8 39 42 34 41 -2 0 -16 -4 -31 -9z"/>
</g>
</svg>
