<!-- Generated by IcoMoon.io -->
<svg version="1.1" xmlns="http://www.w3.org/2000/svg" width="10" height="32" viewBox="0 0 10 32">
<title>angle-right</title>
<path fill="#067d62" d="M10.625 17.143c0 0.143-0.072 0.304-0.178 0.41l-8.321 8.321c-0.107 0.107-0.267 0.178-0.41 0.178s-0.304-0.072-0.41-0.178l-0.893-0.893c-0.107-0.107-0.178-0.25-0.178-0.41 0-0.143 0.072-0.304 0.178-0.41l7.018-7.018-7.018-7.018c-0.107-0.107-0.178-0.267-0.178-0.41s0.072-0.304 0.178-0.41l0.893-0.893c0.107-0.107 0.267-0.178 0.41-0.178s0.304 0.072 0.41 0.178l8.321 8.321c0.107 0.107 0.178 0.267 0.178 0.41z"></path>
</svg>
