<svg aria-hidden="true" style="position: absolute; width: 0; height: 0; overflow: hidden;" version="1.1" xmlns="http://www.w3.org/2000/svg" xmlns:xlink="http://www.w3.org/1999/xlink">
<defs>
<symbol id="icon-users" viewBox="0 0 26 32">
<path d="M13.217 15.337c4.234-0.001 7.667-3.434 7.667-7.668s-3.433-7.668-7.668-7.668c-4.235 0-7.668 3.433-7.668 7.668v0c0 0 0 0 0 0.001 0 4.235 3.433 7.668 7.668 7.668 0.001 0 0.001 0 0.002 0h-0z"></path>
<path opacity="0.82" d="M26.377 22.471c-0.222-0.639-0.482-1.187-0.793-1.702l0.022 0.040c-1.343-2.513-3.715-4.326-6.537-4.889l-0.061-0.010c-0.051-0.007-0.11-0.012-0.17-0.012-0.305 0-0.584 0.109-0.801 0.291l0.002-0.002c-1.27 1.151-2.964 1.856-4.822 1.856s-3.552-0.705-4.828-1.861l0.006 0.005c-0.197-0.185-0.464-0.299-0.757-0.299-0.076 0-0.151 0.008-0.223 0.022l0.007-0.001c-2.886 0.565-5.259 2.381-6.57 4.848l-0.025 0.051c-0.277 0.47-0.536 1.019-0.746 1.591l-0.023 0.071c-0.038 0.1-0.061 0.215-0.061 0.336 0 0.151 0.035 0.293 0.097 0.42l-0.003-0.006c0.315 0.627 0.615 1.145 0.942 1.644l-0.038-0.062c0.483 0.775 0.992 1.448 1.554 2.071l-0.011-0.013c0.498 0.563 1.002 1.079 1.53 1.569l0.014 0.013c2.387 2.205 5.59 3.557 9.108 3.557s6.722-1.352 9.117-3.565l-0.009 0.008c0.553-0.494 1.058-1.011 1.525-1.56l0.018-0.022c0.537-0.612 1.045-1.284 1.503-1.991l0.041-0.067c0.298-0.444 0.598-0.962 0.865-1.499l0.037-0.082c0.091-0.124 0.145-0.28 0.145-0.449 0-0.109-0.023-0.212-0.063-0.306l0.002 0.005z"></path>
</symbol>
</defs>
</svg>
