<svg aria-hidden="true" style="position: absolute; width: 0; height: 0; overflow: hidden;" version="1.1" xmlns="http://www.w3.org/2000/svg" xmlns:xlink="http://www.w3.org/1999/xlink">
<defs>
<symbol id="icon-users" viewBox="0 0 26 32">
<path fill="#000" style="fill: var(--color1, #000)" d="M13.217 15.337c4.234-0.001 7.667-3.434 7.667-7.668s-3.433-7.668-7.668-7.668c-4.235 0-7.668 3.433-7.668 7.668v0c0 0 0 0 0 0.001 0 4.235 3.433 7.668 7.668 7.668 0.001 0 0.001 0 0.002 0h-0z"></path>
<path fill="#000" style="fill: var(--color1, #000)" opacity="0.82" d="M26.377 22.471c-0.222-0.639-0.482-1.187-0.793-1.702l0.022 0.040c-1.343-2.513-3.715-4.326-6.537-4.889l-0.061-0.010c-0.051-0.007-0.11-0.012-0.17-0.012-0.305 0-0.584 0.109-0.801 0.291l0.002-0.002c-1.27 1.151-2.964 1.856-4.822 1.856s-3.552-0.705-4.828-1.861l0.006 0.005c-0.197-0.185-0.464-0.299-0.757-0.299-0.076 0-0.151 0.008-0.223 0.022l0.007-0.001c-2.886 0.565-5.259 2.381-6.57 4.848l-0.025 0.051c-0.277 0.47-0.536 1.019-0.746 1.591l-0.023 0.071c-0.038 0.1-0.061 0.215-0.061 0.336 0 0.151 0.035 0.293 0.097 0.42l-0.003-0.006c0.315 0.627 0.615 1.145 0.942 1.644l-0.038-0.062c0.483 0.775 0.992 1.448 1.554 2.071l-0.011-0.013c0.498 0.563 1.002 1.079 1.53 1.569l0.014 0.013c2.387 2.205 5.59 3.557 9.108 3.557s6.722-1.352 9.117-3.565l-0.009 0.008c0.553-0.494 1.058-1.011 1.525-1.56l0.018-0.022c0.537-0.612 1.045-1.284 1.503-1.991l0.041-0.067c0.298-0.444 0.598-0.962 0.865-1.499l0.037-0.082c0.091-0.124 0.145-0.28 0.145-0.449 0-0.109-0.023-0.212-0.063-0.306l0.002 0.005z"></path>
</symbol>
<symbol id="icon-facebook" viewBox="0 0 18 32">
<path d="M17.125 0.214v4.714h-2.803c-2.197 0-2.607 1.054-2.607 2.571v3.375h5.232l-0.696 5.286h-4.536v13.553h-5.464v-13.553h-4.553v-5.286h4.553v-3.893c0-4.518 2.768-6.982 6.803-6.982 1.928 0 3.59 0.143 4.072 0.214z"></path>
</symbol>
<symbol id="icon-instagram" viewBox="0 0 27 32">
<path d="M18.286 16c0-2.518-2.054-4.571-4.571-4.571s-4.571 2.054-4.571 4.571 2.054 4.571 4.571 4.571 4.571-2.054 4.571-4.571zM20.75 16c0 3.893-3.143 7.035-7.035 7.035s-7.035-3.143-7.035-7.035 3.143-7.035 7.035-7.035 7.035 3.143 7.035 7.035zM22.679 8.679c0 0.911-0.733 1.642-1.642 1.642s-1.642-0.733-1.642-1.642 0.733-1.642 1.642-1.642 1.642 0.733 1.642 1.642zM13.714 4.75c-2 0-6.286-0.161-8.089 0.553-0.625 0.25-1.089 0.553-1.571 1.035s-0.786 0.946-1.035 1.571c-0.714 1.803-0.553 6.089-0.553 8.089s-0.161 6.286 0.553 8.089c0.25 0.625 0.553 1.089 1.035 1.571s0.946 0.786 1.571 1.035c1.803 0.714 6.089 0.553 8.089 0.553s6.286 0.161 8.089-0.553c0.625-0.25 1.089-0.553 1.571-1.035s0.786-0.946 1.035-1.571c0.714-1.803 0.553-6.089 0.553-8.089s0.161-6.286-0.553-8.089c-0.25-0.625-0.553-1.089-1.035-1.571s-0.946-0.786-1.571-1.035c-1.803-0.714-6.089-0.553-8.089-0.553zM27.429 16c0 1.893 0.018 3.768-0.089 5.661-0.107 2.197-0.607 4.143-2.214 5.75s-3.553 2.107-5.75 2.214c-1.893 0.107-3.768 0.089-5.661 0.089s-3.768 0.018-5.661-0.089c-2.197-0.107-4.143-0.607-5.75-2.214s-2.107-3.553-2.214-5.75c-0.107-1.893-0.089-3.768-0.089-5.661s-0.018-3.768 0.089-5.661c0.107-2.197 0.607-4.143 2.214-5.75s3.553-2.107 5.75-2.214c1.893-0.107 3.768-0.089 5.661-0.089s3.768-0.018 5.661 0.089c2.197 0.107 4.143 0.607 5.75 2.214s2.107 3.553 2.214 5.75c0.107 1.893 0.089 3.768 0.089 5.661z"></path>
</symbol>
<symbol id="icon-linkedin" viewBox="0 0 27 32">
<path d="M6.232 11.161v17.696h-5.893v-17.696h5.893zM6.607 5.696c0.018 1.696-1.267 3.054-3.321 3.054v0h-0.035c-1.982 0-3.25-1.358-3.25-3.054 0-1.733 1.321-3.054 3.321-3.054 2.018 0 3.267 1.321 3.286 3.054zM27.429 18.714v10.143h-5.875v-9.464c0-2.375-0.857-4-2.982-4-1.625 0-2.59 1.089-3.018 2.143-0.143 0.393-0.197 0.911-0.197 1.447v9.875h-5.875c0.072-16.035 0-17.696 0-17.696h5.875v2.571h-0.035c0.768-1.214 2.161-2.982 5.339-2.982 3.875 0 6.768 2.536 6.768 7.965z"></path>
</symbol>
<symbol id="icon-twitter" viewBox="0 0 30 32">
<path d="M28.928 7.286c-0.786 1.143-1.768 2.161-2.893 2.982 0.018 0.25 0.018 0.501 0.018 0.75 0 7.625-5.803 16.41-16.41 16.41-3.267 0-6.304-0.946-8.857-2.59 0.464 0.054 0.911 0.072 1.393 0.072 2.696 0 5.178-0.911 7.161-2.464-2.536-0.054-4.661-1.714-5.393-4 0.358 0.054 0.714 0.089 1.089 0.089 0.518 0 1.035-0.072 1.518-0.197-2.642-0.536-4.625-2.857-4.625-5.661v-0.072c0.768 0.429 1.661 0.696 2.607 0.733-1.553-1.035-2.571-2.803-2.571-4.803 0-1.072 0.286-2.054 0.786-2.911 2.839 3.499 7.107 5.786 11.893 6.035-0.089-0.429-0.143-0.875-0.143-1.321 0-3.178 2.571-5.768 5.768-5.768 1.661 0 3.161 0.696 4.214 1.822 1.304-0.25 2.553-0.733 3.661-1.393-0.429 1.339-1.339 2.464-2.536 3.178 1.161-0.125 2.286-0.447 3.321-0.893z"></path>
</symbol>
<symbol id="icon-youtube" viewBox="0 0 32 32">
<path d="M12.696 20.143l8.642-4.464-8.642-4.518v8.982zM16 4.75c6.733 0 11.197 0.321 11.197 0.321 0.625 0.072 2 0.072 3.214 1.358 0 0 0.982 0.965 1.267 3.178 0.339 2.59 0.321 5.178 0.321 5.178v2.429s0.018 2.59-0.321 5.178c-0.286 2.197-1.267 3.178-1.267 3.178-1.214 1.267-2.59 1.267-3.214 1.339 0 0-4.464 0.339-11.197 0.339v0c-8.321-0.072-10.875-0.321-10.875-0.321-0.714-0.125-2.321-0.089-3.536-1.358 0 0-0.982-0.982-1.267-3.178-0.339-2.59-0.321-5.178-0.321-5.178v-2.429s-0.018-2.59 0.321-5.178c0.286-2.214 1.267-3.178 1.267-3.178 1.214-1.286 2.59-1.286 3.214-1.358 0 0 4.464-0.321 11.197-0.321v0z"></path>
</symbol>
</defs>
</svg>
