<svg aria-hidden="true" style="position: absolute; width: 0; height: 0; overflow: hidden;" version="1.1" xmlns="http://www.w3.org/2000/svg" xmlns:xlink="http://www.w3.org/1999/xlink">
<defs>
<symbol id="icon-play" viewBox="0 0 32 32">
<path  d="M15.999 0c-8.837 0-16.001 7.164-16.001 16.001s7.164 16.001 16.001 16.001c8.837 0 16.001-7.164 16.001-16.001v0c0-0.001 0-0.003 0-0.005 0-8.835-7.162-15.996-15.996-15.996-0.002 0-0.003 0-0.005 0h0zM23.463 17.546l-11.354 6.518c-0.217 0.123-0.477 0.195-0.753 0.195-0.856 0-1.55-0.694-1.55-1.55v-13.42c0.003-0.855 0.697-1.548 1.552-1.548 0.275 0 0.534 0.072 0.758 0.198l-0.008-0.004 11.354 6.902c0.477 0.271 0.794 0.776 0.794 1.354s-0.317 1.083-0.786 1.35l-0.008 0.004z"></path>
</symbol>
<symbol id="icon-view" viewBox="0 0 32 32">
<path  d="M15.999 15.999c4.418 0 7.999-3.581 7.999-7.999s-3.581-7.999-7.999-7.999c-4.418 0-7.999 3.581-7.999 7.999v0c0 0.001 0 0.002 0 0.002 0 4.417 3.58 7.997 7.997 7.997 0.001 0 0.002 0 0.003 0h-0zM15.999 19.403c-5.336 0.002-15.999 2.514-15.999 7.833v4.751h31.988v-4.751c0-5.319-10.648-7.831-15.989-7.831z"></path>
</symbol>
<symbol id="icon-people" viewBox="0 0 32 32">
<path d="M16.207 14.975c2.604 0 4.717-2.113 4.717-4.72s-2.116-4.717-4.72-4.714c-2.604 0-4.717 2.113-4.717 4.717 0.006 2.604 2.116 4.711 4.72 4.717z"></path>
<path opacity="0.82" d="M24.302 19.366c-0.121-0.356-0.281-0.699-0.474-1.022-0.827-1.567-2.32-2.679-4.059-3.013-0.213-0.030-0.43 0.033-0.596 0.172-1.686 1.523-4.249 1.523-5.935 0-0.16-0.151-0.382-0.213-0.599-0.172-1.742 0.332-3.236 1.443-4.056 3.013-0.187 0.326-0.347 0.67-0.474 1.022-0.056 0.151-0.050 0.317 0.021 0.462 0.166 0.335 0.353 0.661 0.557 0.972 0.279 0.45 0.596 0.874 0.951 1.268 0.299 0.341 0.616 0.664 0.951 0.972 3.167 2.919 8.041 2.919 11.209 0 0.338-0.302 0.655-0.628 0.951-0.972 0.347-0.397 0.664-0.821 0.951-1.268 0.204-0.311 0.391-0.637 0.554-0.972 0.095-0.133 0.113-0.308 0.047-0.462z"></path>
</symbol>
<symbol id="icon-apple" viewBox="0 0 27 32">
<path fill="#fff" style="fill: var(--color1, #fff)" d="M22.483 16.91c-0.001-0.045-0.002-0.099-0.002-0.153 0-2.551 1.433-4.768 3.538-5.89l0.036-0.018c-1.377-1.894-3.564-3.127-6.042-3.185l-0.009-0c-2.536-0.201-5.308 1.479-6.323 1.479-1.072 0-3.528-1.408-5.459-1.408-3.982 0.064-8.222 3.179-8.222 9.522 0.020 2.085 0.395 4.077 1.068 5.925l-0.039-0.124c0.909 2.616 4.216 9.046 7.661 8.939 1.801-0.043 3.071-1.279 5.416-1.279 2.271 0 3.451 1.279 5.459 1.279 3.471-0.050 6.458-5.886 7.33-8.523-2.608-1.084-4.408-3.61-4.408-6.557 0-0.003 0-0.006 0-0.008v0zM18.439 5.18c1.083-1.19 1.746-2.778 1.746-4.522 0-0.232-0.012-0.461-0.035-0.687l0.002 0.028c-1.939 0.214-3.63 1.131-4.841 2.486l-0.006 0.007c-1.144 1.219-1.848 2.864-1.848 4.673 0 0.163 0.006 0.325 0.017 0.485l-0.001-0.022c0.038 0.001 0.083 0.001 0.128 0.001 1.978 0 3.733-0.958 4.826-2.435l0.012-0.016z"></path>
</symbol>
<symbol id="icon-facebook2" viewBox="0 0 32 32">
<path fill="#fff" style="fill: var(--color1, #fff)" d="M27.688 0h-23.375c-0.001 0-0.003 0-0.004 0-2.382 0-4.312 1.931-4.312 4.312 0 0 0 0 0 0v0 23.375c0 2.382 1.931 4.312 4.312 4.312v0h11.532l0.020-11.434h-2.971c0 0 0 0 0 0-0.386 0-0.699-0.312-0.7-0.698v-0l-0.015-3.678c0-0.001 0-0.003 0-0.004 0-0.387 0.313-0.7 0.7-0.7 0 0 0 0 0 0h2.967v-3.571c-0.018-0.174-0.029-0.376-0.029-0.58 0-3.214 2.606-5.82 5.82-5.82 0.148 0 0.295 0.006 0.44 0.016l-0.019-0.001h3.026c0.387 0 0.7 0.313 0.7 0.7v0 3.109c0 0.387-0.313 0.7-0.7 0.7v0h-1.857c-2.004 0-2.394 0.952-2.394 2.352v3.085h4.406c0 0 0 0 0.001 0 0.387 0 0.7 0.313 0.7 0.7 0 0.029-0.002 0.058-0.005 0.087l0-0.003-0.438 3.687c-0.042 0.35-0.337 0.619-0.695 0.619-0 0-0 0-0 0h-3.947l-0.020 11.434h6.859c2.382 0 4.312-1.931 4.312-4.312v0-23.375c0-2.382-1.931-4.312-4.312-4.312v0z"></path>
</symbol>
<symbol id="icon-gmail" viewBox="0 0 43 32">
<path fill="#eceff1" style="fill: var(--color2, #eceff1)" d="M5.334 0h32v32h-32z"></path>
<path fill="#cfd8dc" style="fill: var(--color3, #cfd8dc)" d="M21.334 19.365l16 12.635v-24.944z"></path>
<path fill="#f44336" style="fill: var(--color4, #f44336)" d="M38.666 0h-1.332l-16 12.635-16-12.635h-1.332c-2.209 0-4 1.79-4.002 3.999v24.001c0.007 2.204 1.795 3.988 3.999 3.989h1.333v-24.934l16 12.307 16-12.309v24.936h1.332c2.208-0.001 3.998-1.791 3.999-3.999v-23.991c-0.001-2.208-1.79-3.997-3.997-3.999h-0z"></path>
</symbol>
<symbol id="icon-sessions" viewBox="0 0 32 32">
<path fill="#a5c5be" style="fill: var(--color3, #a5c5be)" d="M28.667 8h-4.001c-0.368 0-0.666-0.298-0.666-0.666s0.298-0.666 0.666-0.666h3.333v-3.334c0-0.368 0.299-0.667 0.667-0.667s0.667 0.299 0.667 0.667v0 4.001c0 0.368-0.298 0.666-0.666 0.666v0z"></path>
<path fill="#a5c5be" style="fill: var(--color3, #a5c5be)" d="M16 32c-8.837 0-16-7.163-16-16s7.163-16 16-16v0c3.7 0.022 7.103 1.281 9.819 3.383l-0.037-0.028c1.185 0.913 2.206 1.958 3.064 3.129l0.030 0.043c0.081 0.109 0.129 0.246 0.129 0.394 0 0.368-0.298 0.667-0.667 0.667-0.22 0-0.415-0.107-0.537-0.271l-0.001-0.002c-2.697-3.616-6.963-5.932-11.77-5.932-8.087 0-14.643 6.556-14.643 14.643s6.556 14.643 14.643 14.643c8.087 0 14.643-6.556 14.643-14.643 0-0.009 0-0.018-0-0.027v0.001c0-0.022 0-0.049 0-0.075 0-0.646-0.046-1.281-0.135-1.902l0.008 0.071c-0.004-0.028-0.007-0.061-0.007-0.095 0-0.368 0.299-0.667 0.667-0.667 0.335 0 0.612 0.247 0.66 0.568l0 0.004c0.089 0.607 0.141 1.307 0.141 2.019 0 0.027-0 0.053-0 0.080l0-0.004c-0.009 8.835-7.171 15.995-16.006 16h-0.001z"></path>
<path d="M15.953 24.011c-0.011 0.001-0.024 0.001-0.036 0.001s-0.025-0-0.038-0.001l0.002 0c-6.436-0.585-9.899-4.243-10.288-10.872-0.001-0.015-0.002-0.033-0.002-0.051 0-0.22 0.090-0.42 0.235-0.563l0-0c0.152-0.145 0.357-0.234 0.584-0.234 0.010 0 0.020 0 0.030 0.001l-0.001-0c2.582 0.046 4.963 0.866 6.933 2.237l-0.041-0.027c0.196 0.148 0.322 0.381 0.322 0.643 0 0.444-0.36 0.803-0.803 0.803-0.182 0-0.349-0.060-0.484-0.162l0.002 0.001c-1.43-1.006-3.173-1.662-5.060-1.809l-0.035-0.002c0.585 5.202 3.463 7.97 8.758 8.449 0.416 0.032 0.741 0.377 0.741 0.799 0 0.442-0.359 0.801-0.801 0.801-0.004 0-0.009-0-0.013-0h0.001z"></path>
<path d="M16.047 24.011c-0.004 0-0.008 0-0.013 0-0.442 0-0.801-0.359-0.801-0.801 0-0.421 0.325-0.767 0.738-0.798l0.003-0c5.295-0.479 8.17-3.247 8.758-8.449-1.921 0.15-3.664 0.805-5.128 1.833l0.033-0.022c-0.132 0.101-0.3 0.161-0.482 0.161-0.442 0-0.801-0.359-0.801-0.801 0-0.261 0.125-0.492 0.317-0.639l0.002-0.001c1.928-1.345 4.31-2.165 6.881-2.209l0.011-0c0.014-0.001 0.030-0.001 0.046-0.001 0.444 0 0.803 0.36 0.803 0.803 0 0.016-0 0.032-0.001 0.048l0-0.002c-0.394 6.633-3.858 10.288-10.288 10.872-0.011 0.001-0.024 0.001-0.037 0.001s-0.026-0-0.039-0.001l0.002 0z"></path>
<path d="M16 24.011c-0 0-0.001 0-0.001 0-0.238 0-0.451-0.104-0.598-0.268l-0.001-0.001c-4.566-5.137-4.566-10.348 0-15.484 0.151-0.159 0.363-0.257 0.599-0.257s0.448 0.099 0.598 0.257l0 0c4.566 5.137 4.566 10.348 0 15.484-0.146 0.165-0.359 0.269-0.596 0.269-0 0-0.001 0-0.001 0h0zM16 10.031c-3.196 4.009-3.196 7.926 0 11.935 3.2-4.006 3.2-7.926 0-11.935z"></path>
</symbol>
<symbol id="icon-mony" viewBox="0 0 32 32">
<path fill="#a5c5be" style="fill: var(--color3, #a5c5be)" d="M28.67 7.271h-25.043c-0.767 0-1.393 0.622-1.393 1.393 0 0 0 0 0 0v13.914c0 0.767 0.622 1.393 1.393 1.393h25.043c0.767 0 1.393-0.622 1.393-1.393v-13.917c0-0.767-0.622-1.39-1.393-1.39zM4.323 21.879v-2.782c1.538 0 2.782 1.244 2.782 2.782h-2.782zM4.323 12.139v-2.782h2.782c0 1.535-1.244 2.782-2.782 2.782 0 0 0 0 0 0zM16.148 19.796c-1.92 0-3.479-1.87-3.479-4.175s1.559-4.175 3.479-4.175 3.479 1.87 3.479 4.175c0 2.305-1.556 4.172-3.479 4.172v0.003zM27.973 21.881h-2.782c0-1.538 1.244-2.782 2.782-2.782v2.782zM27.973 12.142c-1.538 0-2.782-1.244-2.782-2.782 0 0 0-0.003 0-0.003h2.782v2.785z"></path>
</symbol>
<symbol id="icon-facebook" viewBox="0 0 18 32">
<path d="M17.125 0.214v4.714h-2.803c-2.197 0-2.607 1.054-2.607 2.571v3.375h5.232l-0.696 5.286h-4.536v13.553h-5.464v-13.553h-4.553v-5.286h4.553v-3.893c0-4.518 2.768-6.982 6.803-6.982 1.928 0 3.59 0.143 4.072 0.214z"></path>
</symbol>
<symbol id="icon-instagram" viewBox="0 0 27 32">
<path d="M18.286 16c0-2.518-2.054-4.571-4.571-4.571s-4.571 2.054-4.571 4.571 2.054 4.571 4.571 4.571 4.571-2.054 4.571-4.571zM20.75 16c0 3.893-3.143 7.035-7.035 7.035s-7.035-3.143-7.035-7.035 3.143-7.035 7.035-7.035 7.035 3.143 7.035 7.035zM22.679 8.679c0 0.911-0.733 1.642-1.642 1.642s-1.642-0.733-1.642-1.642 0.733-1.642 1.642-1.642 1.642 0.733 1.642 1.642zM13.714 4.75c-2 0-6.286-0.161-8.089 0.553-0.625 0.25-1.089 0.553-1.571 1.035s-0.786 0.946-1.035 1.571c-0.714 1.803-0.553 6.089-0.553 8.089s-0.161 6.286 0.553 8.089c0.25 0.625 0.553 1.089 1.035 1.571s0.946 0.786 1.571 1.035c1.803 0.714 6.089 0.553 8.089 0.553s6.286 0.161 8.089-0.553c0.625-0.25 1.089-0.553 1.571-1.035s0.786-0.946 1.035-1.571c0.714-1.803 0.553-6.089 0.553-8.089s0.161-6.286-0.553-8.089c-0.25-0.625-0.553-1.089-1.035-1.571s-0.946-0.786-1.571-1.035c-1.803-0.714-6.089-0.553-8.089-0.553zM27.429 16c0 1.893 0.018 3.768-0.089 5.661-0.107 2.197-0.607 4.143-2.214 5.75s-3.553 2.107-5.75 2.214c-1.893 0.107-3.768 0.089-5.661 0.089s-3.768 0.018-5.661-0.089c-2.197-0.107-4.143-0.607-5.75-2.214s-2.107-3.553-2.214-5.75c-0.107-1.893-0.089-3.768-0.089-5.661s-0.018-3.768 0.089-5.661c0.107-2.197 0.607-4.143 2.214-5.75s3.553-2.107 5.75-2.214c1.893-0.107 3.768-0.089 5.661-0.089s3.768-0.018 5.661 0.089c2.197 0.107 4.143 0.607 5.75 2.214s2.107 3.553 2.214 5.75c0.107 1.893 0.089 3.768 0.089 5.661z"></path>
</symbol>
<symbol id="icon-linkedin" viewBox="0 0 27 32">
<path d="M6.232 11.161v17.696h-5.893v-17.696h5.893zM6.607 5.696c0.018 1.696-1.267 3.054-3.321 3.054v0h-0.035c-1.982 0-3.25-1.358-3.25-3.054 0-1.733 1.321-3.054 3.321-3.054 2.018 0 3.267 1.321 3.286 3.054zM27.429 18.714v10.143h-5.875v-9.464c0-2.375-0.857-4-2.982-4-1.625 0-2.59 1.089-3.018 2.143-0.143 0.393-0.197 0.911-0.197 1.447v9.875h-5.875c0.072-16.035 0-17.696 0-17.696h5.875v2.571h-0.035c0.768-1.214 2.161-2.982 5.339-2.982 3.875 0 6.768 2.536 6.768 7.965z"></path>
</symbol>
<symbol id="icon-quotes" viewBox="0 0 32 32">
<path d="M7.031 14c3.866 0 7 3.134 7 7s-3.134 7-7 7-7-3.134-7-7l-0.031-1c0-7.732 6.268-14 14-14v4c-2.671 0-5.182 1.040-7.071 2.929-0.364 0.364-0.695 0.751-0.995 1.157 0.357-0.056 0.724-0.086 1.097-0.086zM25.031 14c3.866 0 7 3.134 7 7s-3.134 7-7 7-7-3.134-7-7l-0.031-1c0-7.732 6.268-14 14-14v4c-2.671 0-5.182 1.040-7.071 2.929-0.364 0.364-0.695 0.751-0.995 1.157 0.358-0.056 0.724-0.086 1.097-0.086z"></path>
</symbol>
<symbol id="icon-twitter" viewBox="0 0 30 32">
<path d="M28.928 7.286c-0.786 1.143-1.768 2.161-2.893 2.982 0.018 0.25 0.018 0.501 0.018 0.75 0 7.625-5.803 16.41-16.41 16.41-3.267 0-6.304-0.946-8.857-2.59 0.464 0.054 0.911 0.072 1.393 0.072 2.696 0 5.178-0.911 7.161-2.464-2.536-0.054-4.661-1.714-5.393-4 0.358 0.054 0.714 0.089 1.089 0.089 0.518 0 1.035-0.072 1.518-0.197-2.642-0.536-4.625-2.857-4.625-5.661v-0.072c0.768 0.429 1.661 0.696 2.607 0.733-1.553-1.035-2.571-2.803-2.571-4.803 0-1.072 0.286-2.054 0.786-2.911 2.839 3.499 7.107 5.786 11.893 6.035-0.089-0.429-0.143-0.875-0.143-1.321 0-3.178 2.571-5.768 5.768-5.768 1.661 0 3.161 0.696 4.214 1.822 1.304-0.25 2.553-0.733 3.661-1.393-0.429 1.339-1.339 2.464-2.536 3.178 1.161-0.125 2.286-0.447 3.321-0.893z"></path>
</symbol>
<symbol id="icon-youtube" viewBox="0 0 32 32">
<path d="M12.696 20.143l8.642-4.464-8.642-4.518v8.982zM16 4.75c6.733 0 11.197 0.321 11.197 0.321 0.625 0.072 2 0.072 3.214 1.358 0 0 0.982 0.965 1.267 3.178 0.339 2.59 0.321 5.178 0.321 5.178v2.429s0.018 2.59-0.321 5.178c-0.286 2.197-1.267 3.178-1.267 3.178-1.214 1.267-2.59 1.267-3.214 1.339 0 0-4.464 0.339-11.197 0.339v0c-8.321-0.072-10.875-0.321-10.875-0.321-0.714-0.125-2.321-0.089-3.536-1.358 0 0-0.982-0.982-1.267-3.178-0.339-2.59-0.321-5.178-0.321-5.178v-2.429s-0.018-2.59 0.321-5.178c0.286-2.214 1.267-3.178 1.267-3.178 1.214-1.286 2.59-1.286 3.214-1.358 0 0 4.464-0.321 11.197-0.321v0z"></path>
</symbol>
<symbol id="icon-visible" viewBox="0 0 32 32">
<path d="M16 6c-6.667 0-12.36 4.147-14.667 10 2.307 5.853 8 10 14.667 10 6.673 0 12.36-4.147 14.667-10-2.307-5.853-7.993-10-14.667-10zM16 22.667c-3.68 0-6.667-2.987-6.667-6.667s2.987-6.667 6.667-6.667 6.667 2.987 6.667 6.667-2.987 6.667-6.667 6.667zM16 12c-2.207 0-4 1.793-4 4s1.793 4 4 4 4-1.793 4-4-1.793-4-4-4z"></path>
</symbol>
<symbol id="icon-unvisible" viewBox="0 0 32 32">
<path d="M16 9.333c3.68 0 6.667 2.987 6.667 6.667 0 0.867-0.173 1.68-0.48 2.44l3.893 3.893c2.013-1.68 3.6-3.853 4.573-6.333-2.307-5.853-8-10-14.667-10-1.867 0-3.653 0.333-5.307 0.933l2.88 2.88c0.76-0.307 1.573-0.48 2.44-0.48zM2.667 5.693l3.653 3.653c-2.213 1.72-3.947 4.013-4.987 6.653 2.307 5.853 8 10 14.667 10 2.067 0 4.040-0.4 5.84-1.12l0.56 0.56 3.907 3.893 1.693-1.693-23.64-23.64-1.693 1.693zM10.040 13.067l2.067 2.067c-0.067 0.28-0.107 0.573-0.107 0.867 0 2.213 1.787 4 4 4 0.293 0 0.587-0.040 0.867-0.107l2.067 2.067c-0.893 0.44-1.88 0.707-2.933 0.707-3.68 0-6.667-2.987-6.667-6.667 0-1.053 0.267-2.040 0.707-2.933zM15.787 12.027l4.2 4.2 0.027-0.213c0-2.213-1.787-4-4-4l-0.227 0.013z"></path>
</symbol>
<symbol id="icon-angle-left" viewBox="0 0 13 32">
<path d="M11.197 9.714c0 0.143-0.072 0.304-0.178 0.41l-7.018 7.018 7.018 7.018c0.107 0.107 0.178 0.267 0.178 0.41s-0.072 0.304-0.178 0.41l-0.893 0.893c-0.107 0.107-0.267 0.178-0.41 0.178s-0.304-0.072-0.41-0.178l-8.321-8.321c-0.107-0.107-0.178-0.267-0.178-0.41s0.072-0.304 0.178-0.41l8.321-8.321c0.107-0.107 0.267-0.178 0.41-0.178s0.304 0.072 0.41 0.178l0.893 0.893c0.107 0.107 0.178 0.25 0.178 0.41z"></path>
</symbol>
<symbol id="icon-angle-right" viewBox="0 0 10 32">
<path d="M10.625 17.143c0 0.143-0.072 0.304-0.178 0.41l-8.321 8.321c-0.107 0.107-0.267 0.178-0.41 0.178s-0.304-0.072-0.41-0.178l-0.893-0.893c-0.107-0.107-0.178-0.25-0.178-0.41 0-0.143 0.072-0.304 0.178-0.41l7.018-7.018-7.018-7.018c-0.107-0.107-0.178-0.267-0.178-0.41s0.072-0.304 0.178-0.41l0.893-0.893c0.107-0.107 0.267-0.178 0.41-0.178s0.304 0.072 0.41 0.178l8.321 8.321c0.107 0.107 0.178 0.267 0.178 0.41z"></path>
</symbol>
<symbol id="icon-close" viewBox="0 0 32 32">
<path d="M4.686 27.314c-6.248-6.248-6.248-16.38 0-22.628 6.25-6.248 16.38-6.248 22.63 0s6.248 16.38 0 22.628c-6.25 6.25-16.38 6.25-22.63 0zM24.486 7.514c-4.688-4.686-12.286-4.686-16.97 0s-4.688 12.284 0 16.97c4.686 4.686 12.284 4.686 16.97 0s4.686-12.284 0-16.97zM11.758 23.072l-2.828-2.83 4.242-4.242-4.242-4.242 2.828-2.83 4.242 4.244 4.242-4.244 2.828 2.83-4.242 4.242 4.242 4.242-2.828 2.83-4.242-4.244-4.242 4.244z"></path>
</symbol>
<symbol id="icon-calendar" viewBox="0 0 31 32">
<path fill="#30a08b" style="fill: var(--color1, #30a08b)" d="M10.197 13.21h4.406v3.92h-4.406z"></path>
<path fill="#30a08b" style="fill: var(--color1, #30a08b)" d="M16.080 13.21h4.406v3.92h-4.406z"></path>
<path fill="#30a08b" style="fill: var(--color1, #30a08b)" d="M21.961 17.129h4.406v-3.92h-4.406zM22.92 14.172h2.491v2.002h-2.491z"></path>
<path fill="#30a08b" style="fill: var(--color1, #30a08b)" d="M4.314 18.442h4.406v3.918h-4.406z"></path>
<path fill="#30a08b" style="fill: var(--color1, #30a08b)" d="M10.197 18.442h4.406v3.918h-4.406z"></path>
<path fill="#30a08b" style="fill: var(--color1, #30a08b)" d="M16.080 18.442h4.406v3.918h-4.406z"></path>
<path fill="#30a08b" style="fill: var(--color1, #30a08b)" d="M21.961 22.359h4.406v-3.918h-4.406zM22.92 19.401h2.491v2h-2.491z"></path>
<path fill="#30a08b" style="fill: var(--color1, #30a08b)" d="M4.314 23.674h4.406v3.918h-4.406z"></path>
<path fill="#30a08b" style="fill: var(--color1, #30a08b)" d="M10.197 23.674h4.406v3.918h-4.406z"></path>
<path fill="#30a08b" style="fill: var(--color1, #30a08b)" d="M16.080 23.674h4.406v3.918h-4.406z"></path>
<path fill="#30a08b" style="fill: var(--color1, #30a08b)" d="M21.961 27.591h4.406v-3.918h-4.406zM22.92 24.634h2.491v2h-2.491z"></path>
<path fill="#035643" style="fill: var(--color2, #035643)" d="M26.149 1.319h-0.654v-0.36c0-0.53-0.429-0.959-0.959-0.959s-0.959 0.429-0.959 0.959v0 0.36h-1.761v-0.36c0-0.53-0.429-0.959-0.959-0.959s-0.959 0.429-0.959 0.959v0.36h-1.761v-0.36c0-0.53-0.429-0.959-0.959-0.959s-0.959 0.429-0.959 0.959v0.36h-1.761v-0.36c0-0.53-0.429-0.959-0.959-0.959s-0.959 0.429-0.959 0.959v0.36h-1.761v-0.36c0-0.53-0.429-0.959-0.959-0.959s-0.959 0.429-0.959 0.959v0.36h-1.76v-0.36c0-0.53-0.429-0.959-0.959-0.959s-0.959 0.429-0.959 0.959v0 0.36h-0.654c-2.501 0.004-4.527 2.030-4.53 4.531v21.619c0.003 2.502 2.030 4.529 4.532 4.532h21.617c2.502-0.003 4.53-2.030 4.533-4.532v-21.619c-0.004-2.502-2.031-4.528-4.533-4.531h-0zM24.061 0.959c0-0.265 0.215-0.479 0.479-0.479s0.479 0.215 0.479 0.479v0 6.214c0 0.265-0.215 0.479-0.479 0.479s-0.479-0.215-0.479-0.479v0zM20.383 0.959c0-0.265 0.215-0.479 0.479-0.479s0.479 0.215 0.479 0.479v6.214c0 0.265-0.215 0.479-0.479 0.479s-0.479-0.215-0.479-0.479v0zM16.704 0.959c0-0.265 0.215-0.479 0.479-0.479s0.479 0.215 0.479 0.479v0 6.214c0 0.265-0.215 0.479-0.479 0.479s-0.479-0.215-0.479-0.479v0zM13.024 0.959c0-0.265 0.215-0.479 0.479-0.479s0.479 0.215 0.479 0.479v6.214c0 0.265-0.215 0.479-0.479 0.479s-0.479-0.215-0.479-0.479v0zM9.345 0.959c0-0.265 0.215-0.479 0.479-0.479s0.479 0.215 0.479 0.479v6.214c0 0.265-0.215 0.479-0.479 0.479s-0.479-0.215-0.479-0.479v0zM5.666 0.959c0-0.265 0.215-0.479 0.479-0.479s0.479 0.215 0.479 0.479v6.214c0 0.265-0.215 0.479-0.479 0.479s-0.479-0.215-0.479-0.479v0zM28.373 27.468c-0.002 1.226-0.996 2.22-2.222 2.221h-21.618c-1.226-0.002-2.22-0.995-2.222-2.221v-21.618c0.002-1.227 0.996-2.22 2.222-2.222h0.654v2.413c-0.329 0.276-0.537 0.688-0.537 1.148 0 0.826 0.67 1.496 1.496 1.496s1.496-0.67 1.496-1.496c0-0.46-0.208-0.872-0.535-1.146l-0.002-0.002v-2.413h1.761v2.413c-0.329 0.276-0.537 0.688-0.537 1.148 0 0.826 0.67 1.496 1.496 1.496s1.496-0.67 1.496-1.496c0-0.46-0.208-0.872-0.535-1.146l-0.002-0.002v-2.413h1.758v2.413c-0.329 0.276-0.537 0.688-0.537 1.148 0 0.826 0.67 1.496 1.496 1.496s1.496-0.67 1.496-1.496c0-0.46-0.208-0.872-0.535-1.146l-0.002-0.002v-2.413h1.761v2.413c-0.33 0.276-0.538 0.689-0.538 1.149 0 0.827 0.67 1.497 1.497 1.497s1.497-0.67 1.497-1.497c0-0.461-0.208-0.873-0.536-1.147l-0.002-0.002v-2.413h1.761v2.413c-0.329 0.276-0.537 0.688-0.537 1.148 0 0.826 0.67 1.496 1.496 1.496s1.496-0.67 1.496-1.496c0-0.46-0.208-0.872-0.535-1.146l-0.002-0.002v-2.413h1.761v2.413c-0.33 0.276-0.538 0.689-0.538 1.149 0 0.827 0.67 1.497 1.497 1.497s1.497-0.67 1.497-1.497c0-0.461-0.208-0.873-0.536-1.147l-0.002-0.002v-2.413h0.654c1.227 0.002 2.22 0.996 2.222 2.222v21.618z"></path>
</symbol>
</defs>
</svg>
