<svg aria-hidden="true" style="position: absolute; width: 0; height: 0; overflow: hidden;" version="1.1" xmlns="http://www.w3.org/2000/svg" xmlns:xlink="http://www.w3.org/1999/xlink">
<defs>
<symbol id="icon-sessions" viewBox="0 0 32 32">
<path fill="#a5c5be" style="fill: var(--color1, #a5c5be)" d="M28.667 8h-4.001c-0.368 0-0.666-0.298-0.666-0.666s0.298-0.666 0.666-0.666v0h3.333v-3.334c0-0.368 0.299-0.667 0.667-0.667s0.667 0.299 0.667 0.667v0 4c0 0.368-0.298 0.666-0.666 0.666v0z"></path>
<path fill="#a5c5be" style="fill: var(--color1, #a5c5be)" d="M16 32c-0.017 0-0.037 0-0.057 0-8.837 0-16-7.163-16-16s7.163-16 16-16c0.020 0 0.040 0 0.060 0h-0.003c3.701 0.023 7.103 1.282 9.819 3.384l-0.037-0.028c1.185 0.913 2.206 1.958 3.064 3.129l0.030 0.043c0.077 0.107 0.123 0.241 0.123 0.386 0 0.368-0.299 0.667-0.667 0.667-0.216 0-0.409-0.103-0.53-0.263l-0.001-0.002c-2.697-3.616-6.963-5.932-11.77-5.932-8.087 0-14.643 6.556-14.643 14.643s6.556 14.643 14.643 14.643c8.087 0 14.643-6.556 14.643-14.643 0-0.009 0-0.018-0-0.027v0.001c0-0.022 0-0.048 0-0.075 0-0.646-0.046-1.281-0.135-1.902l0.008 0.071c-0.005-0.031-0.008-0.067-0.008-0.103 0-0.368 0.299-0.667 0.667-0.667 0.338 0 0.617 0.251 0.661 0.577l0 0.003c0.089 0.607 0.141 1.307 0.141 2.020 0 0.027-0 0.053-0 0.079l0-0.004c-0.009 8.836-7.172 15.995-16.007 16h-0.001z"></path>
<path fill="#a5c5be" style="fill: var(--color1, #a5c5be)" d="M15.953 24.010c-0.011 0.001-0.023 0.001-0.036 0.001s-0.025-0-0.038-0.001l0.002 0c-6.436-0.585-9.899-4.243-10.288-10.872-0.001-0.015-0.002-0.033-0.002-0.051 0-0.22 0.090-0.42 0.235-0.563l0-0c0.152-0.145 0.357-0.234 0.584-0.234 0.010 0 0.020 0 0.030 0.001l-0.001-0c2.582 0.046 4.964 0.866 6.933 2.237l-0.041-0.027c0.191 0.148 0.313 0.378 0.313 0.636 0 0.444-0.36 0.803-0.803 0.803-0.178 0-0.342-0.058-0.475-0.155l0.002 0.002c-1.43-1.006-3.173-1.662-5.059-1.808l-0.035-0.002c0.585 5.202 3.463 7.97 8.758 8.449 0.417 0.031 0.743 0.377 0.743 0.799 0 0.442-0.359 0.801-0.801 0.801-0.005 0-0.010-0-0.015-0h0.001z"></path>
<path fill="#a5c5be" style="fill: var(--color1, #a5c5be)" d="M16.047 24.010c-0.004 0-0.009 0-0.014 0-0.442 0-0.801-0.359-0.801-0.801 0-0.422 0.326-0.767 0.74-0.799l0.003-0c5.295-0.479 8.17-3.246 8.758-8.449-1.921 0.149-3.664 0.805-5.128 1.832l0.033-0.022c-0.132 0.101-0.3 0.161-0.482 0.161-0.442 0-0.801-0.359-0.801-0.801 0-0.261 0.125-0.492 0.317-0.639l0.002-0.001c1.928-1.345 4.31-2.165 6.881-2.209l0.011-0c0.014-0.001 0.030-0.001 0.046-0.001 0.444 0 0.803 0.36 0.803 0.803 0 0.016-0 0.032-0.001 0.048l0-0.002c-0.394 6.633-3.858 10.288-10.288 10.872-0.011 0.001-0.024 0.001-0.037 0.001s-0.026-0-0.039-0.001l0.002 0z"></path>
<path fill="#a5c5be" style="fill: var(--color1, #a5c5be)" d="M16 24.011c-0 0-0.001 0-0.001 0-0.238 0-0.451-0.104-0.598-0.268l-0.001-0.001c-4.566-5.137-4.566-10.348 0-15.484 0.151-0.159 0.363-0.257 0.599-0.257s0.448 0.099 0.598 0.257l0 0c4.566 5.137 4.566 10.348 0 15.484-0.146 0.165-0.359 0.269-0.596 0.269-0.001 0-0.001 0-0.002 0h0zM16 10.031c-3.196 4.009-3.196 7.926 0 11.935 3.2-4.006 3.2-7.926 0-11.935z"></path>
</symbol>
<symbol id="icon-mony" viewBox="0 0 32 32">
<path fill="#a5c5be" style="fill: var(--color1, #a5c5be)" d="M28.67 7.271h-25.043c-0.767 0-1.393 0.622-1.393 1.393 0 0 0 0 0 0v13.914c0 0.767 0.622 1.393 1.393 1.393h25.043c0.767 0 1.393-0.622 1.393-1.393v-13.917c0-0.767-0.622-1.39-1.393-1.39zM4.323 21.879v-2.782c1.538 0 2.782 1.244 2.782 2.782h-2.782zM4.323 12.139v-2.782h2.782c0 1.535-1.244 2.782-2.782 2.782 0 0 0 0 0 0zM16.148 19.796c-1.92 0-3.479-1.87-3.479-4.175s1.559-4.175 3.479-4.175 3.479 1.87 3.479 4.175c0 2.305-1.556 4.172-3.479 4.172v0.003zM27.973 21.881h-2.782c0-1.538 1.244-2.782 2.782-2.782v2.782zM27.973 12.142c-1.538 0-2.782-1.244-2.782-2.782 0 0 0-0.003 0-0.003h2.782v2.785z"></path>
</symbol>
<symbol id="icon-users" viewBox="0 0 26 32">
<path  d="M13.217 15.337c4.234-0.001 7.667-3.434 7.667-7.668s-3.433-7.668-7.668-7.668c-4.235 0-7.668 3.433-7.668 7.668v0c0 0 0 0 0 0.001 0 4.235 3.433 7.668 7.668 7.668 0.001 0 0.001 0 0.002 0h-0z"></path>
<path  opacity="0.82" d="M26.377 22.471c-0.222-0.639-0.482-1.187-0.793-1.702l0.022 0.040c-1.343-2.513-3.715-4.326-6.537-4.889l-0.061-0.010c-0.051-0.007-0.11-0.012-0.17-0.012-0.305 0-0.584 0.109-0.801 0.291l0.002-0.002c-1.27 1.151-2.964 1.856-4.822 1.856s-3.552-0.705-4.828-1.861l0.006 0.005c-0.197-0.185-0.464-0.299-0.757-0.299-0.076 0-0.151 0.008-0.223 0.022l0.007-0.001c-2.886 0.565-5.259 2.381-6.57 4.848l-0.025 0.051c-0.277 0.47-0.536 1.019-0.746 1.591l-0.023 0.071c-0.038 0.1-0.061 0.215-0.061 0.336 0 0.151 0.035 0.293 0.097 0.42l-0.003-0.006c0.315 0.627 0.615 1.145 0.942 1.644l-0.038-0.062c0.483 0.775 0.992 1.448 1.554 2.071l-0.011-0.013c0.498 0.563 1.002 1.079 1.53 1.569l0.014 0.013c2.387 2.205 5.59 3.557 9.108 3.557s6.722-1.352 9.117-3.565l-0.009 0.008c0.553-0.494 1.058-1.011 1.525-1.56l0.018-0.022c0.537-0.612 1.045-1.284 1.503-1.991l0.041-0.067c0.298-0.444 0.598-0.962 0.865-1.499l0.037-0.082c0.091-0.124 0.145-0.28 0.145-0.449 0-0.109-0.023-0.212-0.063-0.306l0.002 0.005z"></path>
</symbol>
<symbol id="icon-facebook" viewBox="0 0 18 32">
<path d="M17.125 0.214v4.714h-2.803c-2.197 0-2.607 1.054-2.607 2.571v3.375h5.232l-0.696 5.286h-4.536v13.553h-5.464v-13.553h-4.553v-5.286h4.553v-3.893c0-4.518 2.768-6.982 6.803-6.982 1.928 0 3.59 0.143 4.072 0.214z"></path>
</symbol>
<symbol id="icon-instagram" viewBox="0 0 27 32">
<path d="M18.286 16c0-2.518-2.054-4.571-4.571-4.571s-4.571 2.054-4.571 4.571 2.054 4.571 4.571 4.571 4.571-2.054 4.571-4.571zM20.75 16c0 3.893-3.143 7.035-7.035 7.035s-7.035-3.143-7.035-7.035 3.143-7.035 7.035-7.035 7.035 3.143 7.035 7.035zM22.679 8.679c0 0.911-0.733 1.642-1.642 1.642s-1.642-0.733-1.642-1.642 0.733-1.642 1.642-1.642 1.642 0.733 1.642 1.642zM13.714 4.75c-2 0-6.286-0.161-8.089 0.553-0.625 0.25-1.089 0.553-1.571 1.035s-0.786 0.946-1.035 1.571c-0.714 1.803-0.553 6.089-0.553 8.089s-0.161 6.286 0.553 8.089c0.25 0.625 0.553 1.089 1.035 1.571s0.946 0.786 1.571 1.035c1.803 0.714 6.089 0.553 8.089 0.553s6.286 0.161 8.089-0.553c0.625-0.25 1.089-0.553 1.571-1.035s0.786-0.946 1.035-1.571c0.714-1.803 0.553-6.089 0.553-8.089s0.161-6.286-0.553-8.089c-0.25-0.625-0.553-1.089-1.035-1.571s-0.946-0.786-1.571-1.035c-1.803-0.714-6.089-0.553-8.089-0.553zM27.429 16c0 1.893 0.018 3.768-0.089 5.661-0.107 2.197-0.607 4.143-2.214 5.75s-3.553 2.107-5.75 2.214c-1.893 0.107-3.768 0.089-5.661 0.089s-3.768 0.018-5.661-0.089c-2.197-0.107-4.143-0.607-5.75-2.214s-2.107-3.553-2.214-5.75c-0.107-1.893-0.089-3.768-0.089-5.661s-0.018-3.768 0.089-5.661c0.107-2.197 0.607-4.143 2.214-5.75s3.553-2.107 5.75-2.214c1.893-0.107 3.768-0.089 5.661-0.089s3.768-0.018 5.661 0.089c2.197 0.107 4.143 0.607 5.75 2.214s2.107 3.553 2.214 5.75c0.107 1.893 0.089 3.768 0.089 5.661z"></path>
</symbol>
<symbol id="icon-linkedin" viewBox="0 0 27 32">
<path d="M6.232 11.161v17.696h-5.893v-17.696h5.893zM6.607 5.696c0.018 1.696-1.267 3.054-3.321 3.054v0h-0.035c-1.982 0-3.25-1.358-3.25-3.054 0-1.733 1.321-3.054 3.321-3.054 2.018 0 3.267 1.321 3.286 3.054zM27.429 18.714v10.143h-5.875v-9.464c0-2.375-0.857-4-2.982-4-1.625 0-2.59 1.089-3.018 2.143-0.143 0.393-0.197 0.911-0.197 1.447v9.875h-5.875c0.072-16.035 0-17.696 0-17.696h5.875v2.571h-0.035c0.768-1.214 2.161-2.982 5.339-2.982 3.875 0 6.768 2.536 6.768 7.965z"></path>
</symbol>
<symbol id="icon-twitter" viewBox="0 0 30 32">
<path d="M28.928 7.286c-0.786 1.143-1.768 2.161-2.893 2.982 0.018 0.25 0.018 0.501 0.018 0.75 0 7.625-5.803 16.41-16.41 16.41-3.267 0-6.304-0.946-8.857-2.59 0.464 0.054 0.911 0.072 1.393 0.072 2.696 0 5.178-0.911 7.161-2.464-2.536-0.054-4.661-1.714-5.393-4 0.358 0.054 0.714 0.089 1.089 0.089 0.518 0 1.035-0.072 1.518-0.197-2.642-0.536-4.625-2.857-4.625-5.661v-0.072c0.768 0.429 1.661 0.696 2.607 0.733-1.553-1.035-2.571-2.803-2.571-4.803 0-1.072 0.286-2.054 0.786-2.911 2.839 3.499 7.107 5.786 11.893 6.035-0.089-0.429-0.143-0.875-0.143-1.321 0-3.178 2.571-5.768 5.768-5.768 1.661 0 3.161 0.696 4.214 1.822 1.304-0.25 2.553-0.733 3.661-1.393-0.429 1.339-1.339 2.464-2.536 3.178 1.161-0.125 2.286-0.447 3.321-0.893z"></path>
</symbol>
<symbol id="icon-youtube" viewBox="0 0 32 32">
<path d="M12.696 20.143l8.642-4.464-8.642-4.518v8.982zM16 4.75c6.733 0 11.197 0.321 11.197 0.321 0.625 0.072 2 0.072 3.214 1.358 0 0 0.982 0.965 1.267 3.178 0.339 2.59 0.321 5.178 0.321 5.178v2.429s0.018 2.59-0.321 5.178c-0.286 2.197-1.267 3.178-1.267 3.178-1.214 1.267-2.59 1.267-3.214 1.339 0 0-4.464 0.339-11.197 0.339v0c-8.321-0.072-10.875-0.321-10.875-0.321-0.714-0.125-2.321-0.089-3.536-1.358 0 0-0.982-0.982-1.267-3.178-0.339-2.59-0.321-5.178-0.321-5.178v-2.429s-0.018-2.59 0.321-5.178c0.286-2.214 1.267-3.178 1.267-3.178 1.214-1.286 2.59-1.286 3.214-1.358 0 0 4.464-0.321 11.197-0.321v0z"></path>
</symbol>
</defs>
</svg>
